<svg xmlns="http://www.w3.org/2000/svg" xmlns:xlink="http://www.w3.org/1999/xlink" width="500" zoomAndPan="magnify" viewBox="0 0 375 374.999991" height="500" preserveAspectRatio="xMidYMid meet" version="1.0"><defs><clipPath id="a6a4bdcb44"><path d="M 0 114 L 375 114 L 375 314.203125 L 0 314.203125 Z M 0 114 " clip-rule="nonzero"/></clipPath></defs><path fill="#ededed" d="M 199.957031 68.621094 C 200.40625 69.292969 200.78125 70.003906 201.15625 70.71875 C 201.71875 70.417969 202.28125 70.117188 202.878906 69.894531 C 203.03125 69.820312 203.21875 69.742188 203.367188 69.667969 C 206.738281 68.394531 210.1875 68.320312 214.269531 69.59375 C 218.804688 71.054688 222.363281 74.203125 224.386719 78.097656 C 226.410156 81.996094 226.933594 86.714844 225.507812 91.25 C 223.261719 98.253906 217.867188 103.949219 210.824219 108.933594 C 204.339844 113.578125 196.511719 117.589844 188.71875 121.632812 C 186.246094 122.90625 183.171875 121.933594 181.898438 119.460938 C 177.851562 111.667969 173.84375 103.875 171.222656 96.308594 C 168.375 88.175781 167.25 80.382812 169.460938 73.378906 C 170.921875 68.84375 174.066406 65.285156 177.964844 63.261719 C 181.859375 61.238281 186.582031 60.714844 191.117188 62.136719 C 195.160156 63.523438 197.972656 65.585938 199.957031 68.621094 Z M 193.324219 79.972656 C 192.914062 77.425781 192.390625 75.511719 191.527344 74.203125 L 191.527344 74.164062 C 190.851562 73.117188 189.730469 72.367188 188.042969 71.839844 C 186.171875 71.242188 184.222656 71.46875 182.609375 72.328125 C 181 73.152344 179.6875 74.613281 179.089844 76.488281 C 177.628906 81.097656 178.601562 86.789062 180.773438 93.011719 C 182.6875 98.441406 185.53125 104.363281 188.566406 110.320312 C 194.488281 107.210938 200.21875 104.0625 204.941406 100.691406 C 210.296875 96.867188 214.382812 92.785156 215.84375 88.175781 C 216.441406 86.304688 216.21875 84.355469 215.355469 82.746094 C 214.53125 81.132812 213.070312 79.820312 211.199219 79.222656 C 209.472656 78.660156 208.125 78.660156 206.964844 79.109375 L 206.703125 79.222656 C 205.316406 79.820312 203.777344 81.132812 202.019531 82.929688 C 200.070312 84.953125 196.847656 84.992188 194.863281 83.042969 C 193.964844 82.21875 193.476562 81.097656 193.324219 79.972656 Z M 193.324219 79.972656 " fill-opacity="1" fill-rule="evenodd"/><g clip-path="url(#a6a4bdcb44)"><path fill="#ededed" d="M 334.3125 278.617188 C 333.113281 279.105469 331.875 279.59375 330.601562 280.003906 C 333.414062 283.75 336.109375 288.957031 336.785156 295.703125 C 337.046875 298.289062 335.136719 300.609375 332.550781 300.835938 C 329.964844 301.097656 327.644531 299.1875 327.417969 296.5625 C 326.707031 289.445312 322.847656 284.835938 320.300781 282.550781 C 318.3125 282.890625 316.289062 283.113281 314.304688 283.226562 C 318.3125 287.308594 321.046875 292.03125 322.847656 298.25 C 323.558594 300.6875 325.882812 302.707031 328.691406 303.796875 C 330.152344 304.355469 331.726562 304.621094 333.1875 304.542969 C 334.460938 304.46875 335.699219 304.058594 336.671875 303.308594 C 338.320312 302.035156 339.558594 299.597656 339.746094 295.628906 C 340.304688 283.824219 336.371094 279.855469 334.3125 278.617188 Z M 341.28125 238.492188 C 340.117188 247.070312 337.535156 259.097656 331.839844 269.363281 C 335.472656 267.753906 338.921875 265.730469 341.992188 263.292969 C 348.699219 258.011719 353.90625 248.757812 357.726562 238.679688 L 357.839844 238.417969 C 352.894531 238.679688 347.386719 238.714844 341.28125 238.492188 Z M 293.734375 152.246094 C 288.902344 152.246094 284.96875 158.5 284.96875 166.183594 C 284.96875 173.863281 288.902344 180.121094 293.734375 180.121094 C 298.570312 180.121094 302.503906 173.863281 302.503906 166.183594 C 302.503906 158.464844 298.570312 152.246094 293.734375 152.246094 Z M 314.15625 243.925781 C 311.570312 243.925781 309.472656 246.023438 309.472656 248.609375 C 309.472656 251.191406 311.570312 253.289062 314.15625 253.289062 C 316.738281 253.289062 318.839844 251.191406 318.839844 248.609375 C 318.839844 246.023438 316.738281 243.925781 314.15625 243.925781 Z M 301.152344 231.523438 C 298.570312 231.523438 296.46875 233.621094 296.46875 236.207031 C 296.46875 238.792969 298.570312 240.890625 301.152344 240.890625 C 303.738281 240.890625 305.835938 238.792969 305.835938 236.207031 C 305.835938 233.621094 303.738281 231.523438 301.152344 231.523438 Z M 296.84375 248.421875 C 294.261719 248.421875 292.160156 250.519531 292.160156 253.101562 C 292.160156 255.6875 294.261719 257.785156 296.84375 257.785156 C 299.429688 257.785156 301.527344 255.6875 301.527344 253.101562 C 301.527344 250.519531 299.429688 248.421875 296.84375 248.421875 Z M 252.824219 153.21875 C 247.988281 153.21875 244.054688 159.476562 244.054688 167.15625 C 244.054688 174.835938 247.988281 181.09375 252.824219 181.09375 C 257.65625 181.09375 261.589844 174.875 261.589844 167.15625 C 261.589844 159.4375 257.65625 153.21875 252.824219 153.21875 Z M 117.195312 192.445312 C 117.195312 192.484375 123 206.15625 118.054688 208.519531 C 113 210.953125 108.539062 203.011719 108.503906 203.011719 C 107.226562 200.726562 104.34375 199.9375 102.058594 201.25 C 100.523438 202.113281 99.660156 203.683594 99.660156 205.332031 C 99.621094 206.308594 99.097656 212.527344 93.515625 213.203125 C 88.71875 213.765625 89.019531 198.851562 89.019531 198.816406 C 89.058594 196.230469 86.996094 194.054688 84.375 194.019531 C 81.75 193.980469 79.617188 196.042969 79.578125 198.664062 C 79.578125 198.738281 79.054688 224.480469 94.601562 222.605469 C 100.898438 221.855469 104.457031 218.445312 106.480469 214.886719 C 110.300781 217.921875 115.660156 220.132812 122.066406 217.0625 C 135.253906 210.765625 125.886719 188.960938 125.847656 188.886719 C 124.875 186.488281 122.101562 185.328125 119.703125 186.300781 C 117.34375 187.273438 116.21875 190.011719 117.195312 192.445312 Z M 184.257812 184.164062 C 180.8125 193.15625 176.089844 210.730469 172.570312 228.75 C 169.347656 245.125 167.175781 261.683594 167.886719 272.136719 C 168.1875 276.707031 169.835938 279.855469 172.234375 281.878906 C 173.804688 283.226562 175.792969 284.125 177.964844 284.6875 C 180.363281 285.285156 182.984375 285.4375 185.644531 285.285156 C 193.625 284.726562 201.792969 281.164062 205.914062 276.332031 C 215.507812 264.980469 210.746094 245.609375 206.777344 232.984375 C 201.832031 217.25 193.511719 200.125 184.257812 184.164062 Z M 249.039062 233.847656 C 248.027344 236.242188 245.253906 237.367188 242.855469 236.355469 C 240.457031 235.34375 239.335938 232.570312 240.347656 230.175781 C 240.347656 230.136719 245.441406 218.222656 259.378906 212.789062 C 261.8125 211.851562 264.550781 213.050781 265.484375 215.488281 C 266.421875 217.921875 265.222656 220.65625 262.789062 221.59375 C 260.503906 222.492188 258.554688 223.578125 256.90625 224.742188 C 258.59375 229.351562 263.3125 237.480469 269.382812 245.871094 C 274.890625 253.476562 281.410156 261.195312 287.777344 266.589844 C 290.550781 268.953125 293.886719 270.710938 297.558594 271.910156 L 297.746094 271.988281 C 302.503906 273.523438 307.824219 274.085938 313.253906 273.824219 C 314.566406 273.746094 315.839844 273.636719 317.152344 273.449219 C 317.265625 273.335938 317.375 273.261719 317.488281 273.148438 C 326.816406 263.707031 330.488281 248.121094 331.914062 237.742188 C 307.972656 233.660156 307.972656 210.054688 310.109375 196.191406 C 295.382812 198.101562 282.421875 200.351562 282.382812 200.386719 C 279.835938 200.839844 277.363281 199.152344 276.914062 196.566406 C 276.464844 194.019531 278.148438 191.546875 280.734375 191.097656 C 280.808594 191.097656 304.414062 186.9375 324.496094 185.101562 C 323.183594 178.546875 320.335938 166.742188 315.128906 153.292969 C 311.382812 143.628906 302.988281 135.273438 291.710938 130.027344 C 280.921875 125.007812 267.585938 122.832031 253.121094 124.929688 C 225.585938 129.015625 209.8125 165.320312 208.125 169.292969 C 207.449219 171.464844 205.242188 172.886719 202.917969 172.550781 C 202.878906 172.550781 195.574219 171.390625 190.027344 175.398438 C 200.558594 193.007812 210.1875 212.378906 215.804688 230.097656 C 221.164062 247.070312 225.808594 267.414062 213.144531 282.402344 C 207.488281 289.070312 196.621094 293.980469 186.320312 294.691406 C 182.6875 294.953125 179.050781 294.691406 175.71875 293.828125 C 172.15625 292.929688 168.898438 291.394531 166.164062 289.070312 C 161.890625 285.472656 159.007812 280.117188 158.480469 272.734375 C 157.695312 261.382812 159.945312 243.960938 163.316406 226.914062 C 167.585938 205.148438 173.730469 183.640625 177.476562 176.109375 C 177.777344 175.511719 178.078125 174.949219 178.414062 174.386719 C 175.640625 169.929688 172.792969 165.582031 169.984375 161.5 C 156.382812 141.640625 143.757812 127.03125 138.773438 125.195312 C 129.070312 129.351562 125.773438 157.226562 125.660156 158.203125 C 125.4375 160.261719 123.902344 161.984375 121.765625 162.359375 L 80.703125 169.402344 C 78.265625 169.851562 75.871094 168.390625 75.230469 165.996094 C 74.371094 162.808594 69.050781 155.390625 62.605469 150.746094 C 60.207031 149.023438 57.734375 147.75 55.488281 147.449219 C 53.726562 147.1875 51.964844 147.597656 50.429688 148.945312 C 47.65625 151.421875 45.222656 156.628906 43.609375 165.808594 C 41.136719 179.855469 38.253906 201.101562 35.441406 223.691406 C 46.195312 226.652344 51.328125 230.699219 51.367188 230.734375 C 53.425781 232.347656 53.800781 235.308594 52.226562 237.367188 C 50.617188 239.429688 47.65625 239.804688 45.597656 238.230469 C 45.597656 238.230469 42.039062 235.417969 34.28125 233.097656 C 33.71875 237.742188 33.15625 242.464844 32.59375 247.109375 C 43.761719 249.019531 49.566406 254.265625 49.605469 254.265625 C 51.554688 255.988281 51.742188 258.984375 50.015625 260.933594 C 48.292969 262.882812 45.296875 263.070312 43.347656 261.347656 C 43.347656 261.347656 39.453125 257.824219 31.507812 256.402344 C 26.9375 295.664062 28.210938 285.324219 28.175781 285.511719 C 27.914062 288.097656 25.589844 290.007812 23.003906 289.746094 C 20.417969 289.484375 18.507812 287.160156 18.769531 284.574219 C 18.808594 284.386719 17.460938 295.027344 22.03125 255.949219 C 17.910156 256.214844 13.226562 257.039062 7.867188 258.761719 C 5.394531 259.546875 2.734375 258.199219 1.949219 255.726562 C 1.160156 253.253906 2.511719 250.59375 4.984375 249.769531 C 11.800781 247.558594 17.832031 246.660156 23.117188 246.507812 C 23.714844 241.375 24.351562 236.242188 24.953125 231.109375 C 19.519531 230.285156 12.925781 229.835938 5.09375 230.25 C 2.511719 230.363281 0.261719 228.375 0.148438 225.753906 C 0 223.167969 2.023438 220.917969 4.609375 220.808594 C 12.925781 220.359375 20.082031 220.84375 26.113281 221.78125 C 28.925781 199.300781 31.808594 178.207031 34.246094 164.234375 C 36.265625 152.769531 39.789062 145.761719 44.136719 141.941406 C 47.996094 138.53125 52.339844 137.519531 56.722656 138.15625 C 60.65625 138.71875 64.515625 140.59375 68.078125 143.175781 C 74.257812 147.636719 79.726562 154.53125 82.539062 159.585938 L 116.746094 153.742188 C 118.242188 144.527344 123.375 120.210938 136.527344 116.050781 C 137.652344 115.714844 138.851562 115.675781 140.160156 115.9375 C 147.019531 117.324219 162.453125 133.886719 177.777344 156.289062 C 180.210938 159.851562 182.6875 163.597656 185.121094 167.417969 C 190.589844 163.746094 196.808594 163.070312 200.667969 163.070312 C 205.464844 152.730469 222.773438 119.984375 251.8125 115.714844 C 268.144531 113.316406 283.394531 115.828125 295.757812 121.597656 C 309.210938 127.890625 319.324219 138.042969 323.972656 149.996094 C 329.703125 164.796875 332.699219 177.832031 334.011719 184.503906 L 334.648438 184.464844 C 337.382812 184.351562 340.417969 184.128906 343.230469 183.941406 C 346.863281 183.679688 350.199219 183.453125 353.53125 183.417969 C 366.683594 183.230469 374.625 185.964844 374.851562 200.5 C 375 210.167969 372.339844 226.953125 366.609375 242.125 C 362.261719 253.628906 356.078125 264.417969 347.875 270.863281 C 346.375 272.0625 344.765625 273.148438 343.152344 274.195312 C 346.601562 278.132812 349.746094 284.835938 349.1875 296.226562 C 348.8125 303.382812 346.152344 308.140625 342.367188 310.988281 C 339.820312 312.898438 336.859375 313.875 333.824219 314.097656 C 330.976562 314.285156 328.015625 313.796875 325.28125 312.75 C 319.960938 310.6875 315.355469 306.417969 313.78125 301.023438 C 312.429688 296.300781 310.371094 292.78125 307.410156 289.78125 C 304.300781 286.671875 300.03125 283.9375 294.371094 280.941406 C 289.652344 279.367188 285.378906 277.042969 281.707031 273.972656 C 274.742188 268.050781 267.660156 259.734375 261.738281 251.53125 C 256.71875 244.597656 252.523438 237.667969 249.898438 232.347656 C 249.300781 233.207031 249.039062 233.847656 249.039062 233.847656 Z M 249.039062 233.847656 " fill-opacity="1" fill-rule="evenodd"/></g><path fill="#ededed" d="M 58.671875 192.746094 C 62.15625 192.183594 65.902344 197.464844 67.027344 204.546875 C 68.152344 211.628906 66.277344 217.808594 62.792969 218.371094 C 59.308594 218.933594 55.5625 213.652344 54.4375 206.570312 C 53.277344 199.488281 55.1875 193.308594 58.671875 192.746094 Z M 58.671875 192.746094 " fill-opacity="1" fill-rule="evenodd"/><path fill="#ededed" d="M 146.90625 178.84375 C 150.390625 178.285156 154.136719 183.566406 155.261719 190.648438 C 156.382812 197.726562 154.511719 203.910156 151.027344 204.472656 C 147.542969 205.035156 143.796875 199.75 142.671875 192.671875 C 141.511719 185.589844 143.421875 179.40625 146.90625 178.84375 Z M 146.90625 178.84375 " fill-opacity="1" fill-rule="evenodd"/></svg>